<svg width="32" height="32" viewBox="0 0 32 32" fill="none" xmlns="http://www.w3.org/2000/svg">
<path d="M28.7888 12.0578L17.2412 0.510179C16.9118 0.180813 16.4724 0 15.9945 0C15.5259 0 15.0868 0.180813 14.7574 0.510179L3.20955 12.0578C2.5274 12.7402 2.5274 13.8508 3.20955 14.5327L4.258 15.5817C4.58737 15.9108 5.02678 16.0918 5.4956 16.0918C5.96415 16.0918 6.41866 15.9108 6.74776 15.5817L13.4995 8.84449V30.2483C13.4995 31.213 14.255 32 15.2197 32H16.7026C17.6673 32 18.4993 31.213 18.4993 30.2483V8.76852L25.2893 15.5817C25.6184 15.9108 26.0461 16.0918 26.5149 16.0918C26.9837 16.0918 27.4167 15.9108 27.7463 15.5817L28.7916 14.5327C29.474 13.8505 29.4714 12.7402 28.7888 12.0578Z" fill="#FFD200"/>
</svg>
